<?xml version="1.0" encoding="UTF-8" standalone="no"?>
<svg
   xmlns:dc="http://purl.org/dc/elements/1.1/"
   xmlns:cc="http://creativecommons.org/ns#"
   xmlns:rdf="http://www.w3.org/1999/02/22-rdf-syntax-ns#"
   xmlns:svg="http://www.w3.org/2000/svg"
   xmlns="http://www.w3.org/2000/svg"
   xmlns:sodipodi="http://sodipodi.sourceforge.net/DTD/sodipodi-0.dtd"
   xmlns:inkscape="http://www.inkscape.org/namespaces/inkscape"
   width="67.405106mm"
   height="66.597855mm"
   viewBox="0 0 67.405106 66.597855"
   version="1.1"
   id="svg8"
   inkscape:version="1.0.2-2 (e86c870879, 2021-01-15)"
   sodipodi:docname="isc-2.svg">
  <defs
     id="defs2" />
  <sodipodi:namedview
     id="base"
     pagecolor="#ffffff"
     bordercolor="#666666"
     borderopacity="1.0"
     inkscape:pageopacity="0.0"
     inkscape:pageshadow="2"
     inkscape:zoom="2.8"
     inkscape:cx="43.940557"
     inkscape:cy="124.30433"
     inkscape:document-units="mm"
     inkscape:current-layer="layer1"
     inkscape:document-rotation="0"
     showgrid="false"
     showguides="false"
     inkscape:window-width="1920"
     inkscape:window-height="1027"
     inkscape:window-x="-8"
     inkscape:window-y="22"
     inkscape:window-maximized="1"
     fit-margin-top="0"
     fit-margin-left="0"
     fit-margin-right="0"
     fit-margin-bottom="0" />
  <metadata
     id="metadata5">
    <rdf:RDF>
      <cc:Work
         rdf:about="">
        <dc:format>image/svg+xml</dc:format>
        <dc:type
           rdf:resource="http://purl.org/dc/dcmitype/StillImage" />
        <dc:title></dc:title>
      </cc:Work>
    </rdf:RDF>
  </metadata>
  <g
     inkscape:groupmode="layer"
     id="layer2"
     inkscape:label="referncia"
     transform="translate(-74.52343,-62.577293)" />
  <g
     inkscape:label="Capa 1"
     inkscape:groupmode="layer"
     id="layer1"
     transform="translate(-74.52343,-62.577293)">
    <ellipse
       style="fill:#ffffff;stroke:none;stroke-width:0.266177;stroke-miterlimit:4;stroke-dasharray:none;stroke-dashoffset:0;stroke-opacity:1"
       id="path920"
       cx="108.22598"
       cy="95.876221"
       rx="33.702553"
       ry="33.298927" />
    <g
       id="g26"
       transform="translate(129.35845,6.9490077)" />
    <rect
       style="fill:#009688;fill-opacity:1;stroke:none;stroke-width:0.364;stroke-linecap:square;stroke-linejoin:bevel;stroke-miterlimit:4;stroke-dasharray:none;stroke-dashoffset:0;stroke-opacity:1;paint-order:stroke fill markers"
       id="rect908"
       width="38.939415"
       height="38.939415"
       x="123.75179"
       y="-29.042217"
       transform="rotate(45)"
       rx="1.919" />
    <path
       style="opacity:0.998;fill:#009688;fill-opacity:1;stroke-width:0.115455"
       d="m 102.66354,122.88381 c -0.0388,-0.24267 -0.10294,-0.95705 -0.14251,-1.5875 -0.0717,-1.14262 -0.0708,-1.14794 0.28461,-1.66583 0.51887,-0.75605 0.47826,-1.25905 -0.12691,-1.572 -0.666,-0.3444 -1.3074,0.25098 -1.5798,1.46645 -0.14623,0.65251 0.0705,1.77734 0.51266,2.66069 0.57324,1.1452 1.18875,1.55373 1.05195,0.69819 z m 10.8609,0.18145 c 0.36016,-0.39261 0.82366,-1.38605 1.00064,-2.14467 0.45392,-1.94581 -0.90835,-3.84616 -1.82203,-2.54171 -0.26171,0.37364 -0.23356,0.56118 0.17735,1.18155 l 0.36219,0.5468 -0.0817,1.6089 c -0.0473,0.93188 -0.0381,1.6089 0.0218,1.6089 0.0569,0 0.21068,-0.1169 0.34174,-0.25977 z m -15.629306,-5.48405 c -0.13937,-1.61125 -0.0966,-2.20422 0.1867,-2.58738 0.39083,-0.52861 0.45907,-0.818 0.28853,-1.22358 -0.17519,-0.41665 -0.60619,-0.58338 -1.0786,-0.41725 -0.67095,0.23596 -1.11145,1.76888 -0.82976,2.88753 0.26214,1.04106 1.07959,2.46637 1.41453,2.46637 0.0764,0 0.0827,-0.38427 0.0186,-1.12569 z m 21.046006,-0.47119 c 0.42985,-1.03138 0.45956,-2.36755 0.069,-3.10404 -0.41168,-0.77633 -0.97255,-0.94443 -1.47492,-0.44206 -0.36155,0.36155 -0.36132,0.80294 6.9e-4,1.23312 0.39586,0.47044 0.45606,0.95127 0.30262,2.41678 -0.0732,0.69899 -0.0963,1.3304 -0.0514,1.40313 0.13286,0.21497 0.79876,-0.65459 1.15398,-1.50693 z m -25.769266,-4.74566 -0.0817,-1.60889 0.36974,-0.55588 c 0.41852,-0.62922 0.41694,-1.10044 -0.005,-1.45065 -0.97368,-0.80841 -2.03773,0.83666 -1.70766,2.64013 0.17972,0.98198 1.04055,2.58419 1.38842,2.58419 0.0782,0 0.0903,-0.53943 0.036,-1.6089 z m 29.906376,1.06049 c 0.89567,-1.22103 1.18395,-3.07036 0.63396,-4.06688 -0.15595,-0.28256 -0.42642,-0.59363 -0.60104,-0.69127 -0.28559,-0.15969 -0.34942,-0.1597 -0.635,-1.2e-4 -0.65179,0.36413 -0.7019,0.91916 -0.14556,1.61217 0.27754,0.34572 0.32386,0.98316 0.18664,2.56887 -0.11372,1.31426 -0.0373,1.3929 0.561,0.57727 z m -34.573076,-5.50076 c -0.17573,-1.42441 -0.12184,-1.89028 0.2795,-2.41647 0.38424,-0.50376 0.38909,-1.03477 0.0129,-1.41097 -0.36053,-0.36054 -0.649,-0.35827 -1.08491,0.009 -1.0776,0.90675 -0.88248,3.38321 0.38463,4.88164 0.496,0.58654 0.58331,0.35905 0.4079,-1.06273 z m 39.685356,0.0521 c 0.67849,-1.41033 0.65951,-2.86275 -0.0484,-3.70406 -0.38593,-0.45866 -0.95571,-0.47586 -1.29916,-0.0392 -0.32207,0.40945 -0.30117,0.75909 0.0719,1.20245 0.38825,0.46141 0.4758,1.34235 0.27054,2.72204 -0.078,0.52434 -0.10544,1.01222 -0.061,1.08419 0.13999,0.2265 0.62575,-0.35005 1.0661,-1.26539 z m -44.369806,-4.95041 c -0.0825,-1.62564 -0.0389,-1.89624 0.37146,-2.30664 0.42414,-0.42413 0.2321,-1.257367 -0.33582,-1.457097 -0.52594,-0.18496 -0.90048,0.0302 -1.26412,0.72632 -0.48094,0.920627 -0.43198,1.905807 0.16139,3.247607 0.3235,0.73154 0.78722,1.38545 0.98249,1.38545 0.13975,0 0.15296,-0.2491 0.0846,-1.59564 z m 48.543866,1.16937 c 0.44939,-0.54518 0.94007,-1.7686 1.02022,-2.54369 0.0799,-0.77242 -0.1451,-1.57739 -0.57893,-2.071507 -0.39166,-0.44607 -0.7288,-0.48823 -1.16437,-0.14561 -0.40508,0.31863 -0.40036,0.821897 0.0133,1.418487 0.35666,0.51439 0.3995,1.0748 0.21527,2.81609 -0.11561,1.09272 -0.0393,1.17388 0.49451,0.52623 z"
       id="path24"
       sodipodi:nodetypes="ssssssssssscsssssssssssssssscssccscssccssscssssssscsssssssscssssssssssssssss" />
    <path
       style="fill:#ffffff;stroke-width:0.115455"
       d="m 96.239124,101.96165 c -0.41275,-0.0476 -0.96514,-0.14444 -1.22754,-0.21513 l -0.47708,-0.12852 0.23799,-0.66308 c 0.13089,-0.36469 0.24613,-0.6762 0.25609,-0.69224 0.01,-0.016 0.32537,0.0778 0.70092,0.20847 0.82502,0.28713 2.29879,0.32047 2.79617,0.0633 0.63082,-0.3262 0.77745,-1.142424 0.31433,-1.749614 -0.22032,-0.28886 -0.57473,-0.48784 -1.55256,-0.87171 -1.53331,-0.60193 -2.20378,-1.06401 -2.53418,-1.74654 -0.83889,-1.73291 0.4402,-3.28328 2.81555,-3.41268 0.9201,-0.0501 2.570506,0.13517 2.743336,0.308 0.0497,0.0497 -0.0205,0.38031 -0.15608,0.73461 l -0.246507,0.64418 -0.641019,-0.22054 c -1.15016,-0.39572 -2.60205,-0.22609 -2.90467,0.33936 -0.13747,0.25687 -0.16284,0.7074 -0.0556,0.98695 0.0985,0.25668 0.67751,0.58769 1.54718,0.8845 1.718479,0.58648 2.531556,1.22249 2.824666,2.20949 0.21244,0.71536 0.2168,0.87216 0.0434,1.560894 -0.34372,1.36503 -2.062716,2.03982 -4.484406,1.76034 z m 9.698186,3.5e-4 c -1.37843,-0.18271 -2.38537,-0.96797 -2.89393,-2.256804 -0.23404,-0.59313 -0.2704,-0.88912 -0.27536,-2.24199 -0.004,-1.21705 0.0406,-1.69626 0.20583,-2.18663 0.42145,-1.25115 1.15775,-1.99247 2.3649,-2.38101 0.48852,-0.15723 0.87714,-0.18511 1.905,-0.13663 0.71021,0.0335 1.42932,0.1154 1.59803,0.18201 l 0.30676,0.1211 -0.23648,0.64195 c -0.13006,0.35306 -0.30053,0.64194 -0.37883,0.64194 -0.0783,0 -0.36323,-0.0779 -0.6332,-0.17318 -0.624,-0.22017 -1.58656,-0.22209 -2.10799,-0.004 -1.00446,0.41969 -1.40835,1.48446 -1.33339,3.51522 0.042,1.13731 0.0928,1.42472 0.33895,1.91537 0.42051,0.838314 0.86326,1.096834 1.87837,1.096764 0.54605,-4e-5 1.02723,-0.0788 1.44039,-0.23587 0.34124,-0.12969 0.63297,-0.22059 0.6483,-0.20199 0.11049,0.13405 0.40896,1.26235 0.35642,1.34736 -0.16861,0.27281 -2.14548,0.49424 -3.18377,0.35661 z m 5.55531,-0.18433 c -0.84079,-0.58891 -0.75738,-2.600084 0.12521,-3.019074 0.3942,-0.18713 0.80239,-0.0869 1.14921,0.28232 0.24016,0.25564 0.27072,0.39896 0.27072,1.269704 0,0.9626 -0.007,0.98803 -0.37705,1.31843 -0.42531,0.38001 -0.77433,0.42442 -1.16809,0.14862 z m 0.90608,-0.61232 c 0.0657,-0.12283 0.11951,-0.5159 0.11951,-0.8735 0,-0.783684 -0.14626,-1.096824 -0.51231,-1.096824 -0.20272,0 -0.306,0.0939 -0.40003,0.36359 -0.15696,0.450264 -0.16334,1.141504 -0.0142,1.533894 0.13854,0.36439 0.62733,0.4085 0.80698,0.0728 z m 7.13974,0.46775 c -0.34044,-0.30418 -0.37592,-0.4011 -0.41204,-1.12568 -0.0462,-0.927694 0.18568,-1.510004 0.6984,-1.753474 0.72841,-0.34589 1.36533,0.25486 1.44551,1.363434 0.0575,0.79488 -0.10278,1.28686 -0.52829,1.62156 -0.40148,0.3158 -0.76773,0.2836 -1.20358,-0.10584 z m 1.06445,-0.54058 c 0.0619,-0.16289 0.1126,-0.52319 0.1126,-0.80067 0,-0.746164 -0.1661,-1.096824 -0.51955,-1.096824 -0.35344,0 -0.51954,0.35066 -0.51954,1.096824 0,0.74616 0.1661,1.09681 0.51954,1.09681 0.20974,0 0.32672,-0.0851 0.40695,-0.29615 z m -6.69922,0.5973 c 0,-0.0884 0.12989,-0.19327 0.28864,-0.23311 0.28254,-0.0709 0.28863,-0.0956 0.28863,-1.16926 v -1.096824 l -0.28863,0.0724 c -0.23522,0.059 -0.28864,0.0301 -0.28864,-0.15655 0,-0.16411 0.10223,-0.24944 0.36079,-0.30115 0.82326,-0.16465 0.79375,-0.21098 0.79375,1.246394 v 1.31856 l 0.34637,0.0761 c 0.1905,0.0418 0.34636,0.14988 0.34636,0.24009 0,0.12804 -0.20255,0.164 -0.92363,0.164 -0.71207,0 -0.92364,-0.0368 -0.92364,-0.16066 z m 2.77091,-0.0103 c 0,-0.094 0.12988,-0.20359 0.28863,-0.24343 0.28255,-0.0709 0.28864,-0.0956 0.28864,-1.16926 v -1.096824 l -0.28864,0.0724 c -0.23211,0.0583 -0.28863,0.0294 -0.28863,-0.1472 0,-0.23245 0.29095,-0.35774 0.83704,-0.36045 l 0.3175,-0.002 v 1.315214 c 0,1.3066 0.002,1.31569 0.28864,1.38765 0.15875,0.0399 0.28864,0.14939 0.28864,0.24343 0,0.13581 -0.17814,0.17098 -0.86591,0.17098 -0.68778,0 -0.86591,-0.0352 -0.86591,-0.17098 z m 5.42636,0 c 0,-0.094 0.12989,-0.20359 0.28864,-0.24343 0.2823,-0.0708 0.28863,-0.0963 0.28863,-1.15894 v -1.086514 l -0.28863,0.0724 c -0.23521,0.059 -0.28864,0.0301 -0.28864,-0.15655 0,-0.16411 0.10223,-0.24944 0.3608,-0.30116 0.82325,-0.16465 0.79375,-0.21097 0.79375,1.246404 v 1.31855 l 0.34636,0.0761 c 0.1905,0.0418 0.34636,0.14988 0.34636,0.24008 0,0.12804 -0.20255,0.16401 -0.92363,0.16401 -0.73876,0 -0.92364,-0.0342 -0.92364,-0.17098 z m 2.65546,0.007 c 0,-0.0902 0.15586,-0.19824 0.34636,-0.24008 l 0.34636,-0.0761 v -1.08476 -1.084754 l -0.34636,0.0693 c -0.29248,0.0585 -0.34636,0.0334 -0.34636,-0.16164 0,-0.23482 0.37261,-0.37523 0.99579,-0.37523 0.27259,0 0.27421,0.008 0.27421,1.315224 0,1.3066 0.002,1.31568 0.28863,1.38765 0.15875,0.0398 0.28864,0.14938 0.28864,0.24342 0,0.13676 -0.18488,0.17099 -0.92364,0.17099 -0.72108,0 -0.92363,-0.036 -0.92363,-0.16401 z M 90.697314,97.290076 v -4.445 h 0.8659 0.86591 v 4.445 4.445004 h -0.86591 -0.8659 z m 20.493176,-1.44318 c -0.11476,-0.18569 0.0491,-0.34637 0.35318,-0.34637 0.27901,0 0.28182,-0.0109 0.28182,-1.09682 v -1.09681 h -0.34637 c -0.2246,0 -0.34636,-0.0585 -0.34636,-0.16637 0,-0.22098 0.0761,-0.25844 0.72159,-0.35505 l 0.54841,-0.0821 v 1.39856 1.39856 h 0.28864 c 0.21166,0 0.28863,0.0616 0.28863,0.23091 0,0.21022 -0.077,0.23091 -0.85909,0.23091 -0.4725,0 -0.89121,-0.0519 -0.93045,-0.11545 z m 2.71318,-0.1104 c 0,-0.17473 0.0749,-0.23597 0.28864,-0.23597 0.28762,0 0.28863,-0.004 0.28863,-1.09682 0,-1.09297 -0.001,-1.09681 -0.28863,-1.09681 -0.17435,0 -0.28864,-0.0659 -0.28864,-0.16637 0,-0.21433 0.0714,-0.25197 0.66386,-0.35001 l 0.49068,-0.0812 v 1.21298 c 0,1.37474 0.0473,1.57822 0.36719,1.57822 0.15393,0 0.21461,0.0651 0.18847,0.20205 -0.0317,0.16634 -0.18624,0.20804 -0.87438,0.23597 -0.77589,0.0315 -0.83582,0.017 -0.83582,-0.20205 z m 2.84349,-0.12391 c -1.0094,-1.19961 -0.0385,-3.42895 1.20381,-2.76409 0.72956,0.39045 0.82605,2.34374 0.14236,2.88153 -0.44744,0.35196 -0.9911,0.30453 -1.34617,-0.11744 z m 1.0779,-0.33538 c 0.1511,-0.28232 0.15542,-1.39904 0.007,-1.78962 -0.17322,-0.4556 -0.55305,-0.38917 -0.77208,0.13504 -0.19737,0.47239 -0.14889,1.43315 0.0866,1.71695 0.19126,0.23046 0.5389,0.19851 0.67852,-0.0624 z m 1.64929,0.60868 c -0.25526,-0.103 -0.15856,-0.38536 0.13197,-0.38536 0.36253,0 0.42477,-0.19764 0.40499,-1.28601 l -0.0165,-0.90762 h -0.34086 c -0.52742,0 -0.3828,-0.36953 0.1913,-0.48881 0.74217,-0.1542 0.75477,-0.13165 0.75477,1.35109 v 1.33135 h 0.28864 c 0.21167,0 0.28864,0.0616 0.28864,0.23091 0,0.20901 -0.0739,0.23005 -0.77932,0.2218 -0.42863,-0.005 -0.84426,-0.0353 -0.92364,-0.0674 z m 2.8298,-0.15145 c -0.65107,-0.51214 -0.65534,-2.26141 -0.007,-2.77159 0.65837,-0.51787 1.42231,-0.14666 1.64981,0.80168 0.272,1.13381 -0.20005,2.19782 -0.97505,2.19782 -0.20804,0 -0.50865,-0.10256 -0.66801,-0.22791 z m 0.95163,-0.40744 c 0.0816,-0.0983 0.14403,-0.4902 0.14403,-0.90427 0,-1.07858 -0.31435,-1.50658 -0.77108,-1.04986 -0.21205,0.21205 -0.25532,1.54296 -0.0619,1.90434 0.14258,0.26641 0.48844,0.2914 0.68896,0.0498 z m 1.55834,0.5199 c -0.11475,-0.18569 0.0491,-0.34637 0.35318,-0.34637 0.27902,0 0.28182,-0.0109 0.28182,-1.09682 v -1.09681 h -0.34636 c -0.2246,0 -0.34636,-0.0585 -0.34636,-0.16637 0,-0.22098 0.0761,-0.25844 0.72159,-0.35505 l 0.54841,-0.0821 v 1.39856 1.39856 h 0.28863 c 0.21167,0 0.28864,0.0616 0.28864,0.23091 0,0.21022 -0.077,0.23091 -0.8591,0.23091 -0.4725,0 -0.8912,-0.0519 -0.93045,-0.11545 z m -33.603646,-3.81705 c -0.1843,-0.20365 -0.19104,-0.25333 -0.0468,-0.3446 0.22911,-0.14492 0.65747,-0.13775 0.75036,0.0126 0.0738,0.11943 -0.24916,0.57 -0.40858,0.57 -0.0438,0 -0.17658,-0.10708 -0.29502,-0.23796 z m -0.96861,-0.96754 -0.25255,-0.26882 0.34992,-0.24916 c 0.64498,-0.45927 1.84365,-0.43414 2.48604,0.0521 0.21893,0.16571 0.21831,0.17372 -0.0346,0.44289 l -0.25752,0.27412 -0.42726,-0.21813 c -0.45425,-0.23192 -0.91438,-0.2048 -1.36575,0.0805 -0.21778,0.13764 -0.27452,0.12472 -0.49831,-0.1135 z m -0.87789,-0.92277 c -0.22874,-0.3491 -0.18501,-0.42793 0.43862,-0.79075 1.23972,-0.72126 2.78005,-0.59754 3.94495,0.31685 0.21472,0.16854 0.21506,0.18118 0.011,0.40669 -0.26676,0.29477 -0.30781,0.29225 -0.81201,-0.0499 -0.80928,-0.54918 -2.21674,-0.49551 -3.01725,0.11507 l -0.37781,0.28817 -0.18747,-0.28612 z m 24.743566,-0.40226 c -0.37083,-0.33134 -0.37705,-0.3534 -0.37705,-1.3372 0,-0.99054 0.004,-1.00371 0.38991,-1.34869 0.31634,-0.28266 0.45651,-0.33507 0.74288,-0.2778 0.47349,0.0947 0.71025,0.32941 0.86994,0.86243 0.27592,0.92093 0.0613,1.88265 -0.49593,2.22247 -0.48201,0.29394 -0.69011,0.27161 -1.12975,-0.12121 z m 1.05483,-0.60398 c 0.28259,-0.81061 0.0598,-1.83004 -0.40002,-1.83004 -0.36605,0 -0.51232,0.31314 -0.51232,1.09682 0,0.78367 0.14627,1.09682 0.51232,1.09682 0.20272,0 0.306,-0.0939 0.40002,-0.3636 z m 7.27201,0.76773 c -0.16586,-0.0901 -0.37271,-0.33485 -0.45967,-0.54379 -0.21025,-0.50519 -0.18673,-1.56244 0.0447,-2.00885 0.21618,-0.41699 0.75741,-0.68064 1.17969,-0.57465 0.61988,0.15557 0.98623,1.27293 0.74587,2.27487 -0.10866,0.45294 -0.22126,0.63358 -0.5014,0.80441 -0.42631,0.25995 -0.6037,0.26839 -1.00919,0.048 z m 0.88873,-0.66391 c 0.13192,-0.41193 0.0859,-1.57567 -0.0697,-1.76317 -0.19842,-0.23908 -0.54468,-0.21255 -0.6866,0.0526 -0.0657,0.12282 -0.11951,0.5159 -0.11951,0.8735 0,0.3576 0.0538,0.75067 0.11951,0.8735 0.16898,0.31573 0.65095,0.2925 0.75629,-0.0365 z m -12.19035,0.56284 c 0,-0.0873 0.15586,-0.18992 0.34636,-0.22802 l 0.34637,-0.0693 v -1.09971 -1.0997 h -0.34637 c -0.22611,0 -0.34636,-0.0583 -0.34636,-0.16795 0,-0.14932 0.33206,-0.25565 1.03909,-0.33272 0.14256,-0.0155 0.18339,0.22609 0.23091,1.36658 0.0554,1.32869 0.0684,1.38697 0.3175,1.42235 0.14288,0.0203 0.25977,0.11121 0.25977,0.20204 0,0.12947 -0.19955,0.16515 -0.92363,0.16515 -0.70672,0 -0.92364,-0.0373 -0.92364,-0.15875 z m 5.54182,-0.002 c 0,-0.0884 0.12988,-0.19327 0.28863,-0.23311 0.28249,-0.0709 0.28864,-0.0958 0.28864,-1.16706 0,-1.09063 -0.001,-1.09462 -0.28864,-1.09462 -0.50647,0 -0.34641,-0.3344 0.20205,-0.4221 0.26988,-0.0431 0.51666,-0.0827 0.54841,-0.088 0.0318,-0.005 0.0837,0.61396 0.11545,1.37596 0.0554,1.32869 0.0684,1.38696 0.3175,1.42235 0.14288,0.0203 0.25978,0.11121 0.25978,0.20204 0,0.12855 -0.1919,0.16515 -0.86591,0.16515 -0.66275,0 -0.86591,-0.0377 -0.86591,-0.16066 z m 2.65545,0.002 c 0,-0.0873 0.15783,-0.19031 0.35073,-0.22889 l 0.35072,-0.0701 -0.0332,-1.06997 -0.0332,-1.06997 -0.3175,-0.0365 c -0.51184,-0.0589 -0.37638,-0.33631 0.22708,-0.46501 0.29952,-0.0639 0.58527,-0.091 0.635,-0.0603 0.0497,0.0307 0.0904,0.67627 0.0904,1.43452 0,0.75825 0.039,1.37249 0.0866,1.36497 0.2798,-0.0442 0.49069,0.0361 0.49069,0.18685 0,0.13951 -0.1796,0.17318 -0.92364,0.17318 -0.70672,0 -0.92364,-0.0373 -0.92364,-0.15875 z m 5.42637,0 c 0,-0.0873 0.15586,-0.18992 0.34636,-0.22802 l 0.34636,-0.0693 v -1.09971 -1.0997 h -0.34636 c -0.22611,0 -0.34636,-0.0583 -0.34636,-0.16795 0,-0.14932 0.33206,-0.25565 1.03909,-0.33272 0.14356,-0.0157 0.17874,0.21296 0.2057,1.33643 0.032,1.33311 0.0372,1.35648 0.3175,1.42684 0.15674,0.0393 0.28498,0.14382 0.28498,0.23219 0,0.12386 -0.21158,0.16066 -0.92364,0.16066 -0.70672,0 -0.92363,-0.0373 -0.92363,-0.15875 z m -36.354326,-0.62354 c -0.16741,-0.3128 0.0238,-0.5398 0.83869,-0.99549 0.97167,-0.54339 2.08038,-0.74327 3.08574,-0.5563 0.78041,0.14513 1.68816,0.55243 2.23296,1.00191 0.33448,0.27597 0.33682,0.28554 0.12642,0.51803 -0.27393,0.3027 -0.36146,0.29781 -0.76624,-0.0428 -1.20119,-1.01073 -3.44172,-1.02264 -4.74938,-0.0252 -0.47,0.3585 -0.61939,0.37792 -0.76819,0.0999 z"
       id="path24-1"
       sodipodi:nodetypes="sscsssssssssscsssssssscsccssscssscssssssccsssscscssssccsssssssssssssssscssssccsssscssccsccssssccssscssssccsssssscccssssssssscccccccccssscssscccssssssssssscssssssssssccssccssscssscsssssccssccssssssssscssscccsssssssssssccssscssscssssssccssscssssssssssssssssscssssccsscccssssssssscsssscssssccsscccssssssssssscccssssssssssssssssss" />
  </g>
</svg>
