<?xml version="1.0" encoding="UTF-8" standalone="no"?>
<svg
   xmlns:dc="http://purl.org/dc/elements/1.1/"
   xmlns:cc="http://creativecommons.org/ns#"
   xmlns:rdf="http://www.w3.org/1999/02/22-rdf-syntax-ns#"
   xmlns:svg="http://www.w3.org/2000/svg"
   xmlns="http://www.w3.org/2000/svg"
   xmlns:sodipodi="http://sodipodi.sourceforge.net/DTD/sodipodi-0.dtd"
   xmlns:inkscape="http://www.inkscape.org/namespaces/inkscape"
   width="67.405106mm"
   height="66.597855mm"
   viewBox="0 0 67.405106 66.597855"
   version="1.1"
   id="svg8"
   inkscape:version="1.0.2-2 (e86c870879, 2021-01-15)"
   sodipodi:docname="isc.svg">
  <defs
     id="defs2" />
  <sodipodi:namedview
     id="base"
     pagecolor="#ffffff"
     bordercolor="#666666"
     borderopacity="1.0"
     inkscape:pageopacity="0.0"
     inkscape:pageshadow="2"
     inkscape:zoom="2.8"
     inkscape:cx="197.87648"
     inkscape:cy="45.433214"
     inkscape:document-units="mm"
     inkscape:current-layer="layer1"
     inkscape:document-rotation="0"
     showgrid="false"
     showguides="false"
     inkscape:window-width="1920"
     inkscape:window-height="1027"
     inkscape:window-x="-8"
     inkscape:window-y="-8"
     inkscape:window-maximized="1"
     fit-margin-top="0"
     fit-margin-left="0"
     fit-margin-right="0"
     fit-margin-bottom="0" />
  <metadata
     id="metadata5">
    <rdf:RDF>
      <cc:Work
         rdf:about="">
        <dc:format>image/svg+xml</dc:format>
        <dc:type
           rdf:resource="http://purl.org/dc/dcmitype/StillImage" />
        <dc:title />
      </cc:Work>
    </rdf:RDF>
  </metadata>
  <g
     inkscape:groupmode="layer"
     id="layer2"
     inkscape:label="referncia"
     transform="translate(-74.52343,-62.577293)" />
  <g
     inkscape:label="Capa 1"
     inkscape:groupmode="layer"
     id="layer1"
     transform="translate(-74.52343,-62.577293)">
    <g
       id="g26"
       transform="translate(129.35845,6.9490077)" />
    <path
       id="rect908"
       style="fill:#ffffff;fill-opacity:1;stroke:none;stroke-width:1.37575;stroke-linecap:square;stroke-linejoin:bevel;stroke-miterlimit:4;stroke-dasharray:none;stroke-dashoffset:0;stroke-opacity:1;paint-order:stroke fill markers"
       d="M 126.68359 19.599609 C 124.82961 19.599609 122.97531 20.309851 121.55469 21.730469 L 27.744141 115.53906 C 24.902905 118.3803 24.902905 122.95564 27.744141 125.79688 L 121.55469 219.60547 C 124.39592 222.4467 128.97126 222.4467 131.8125 219.60547 L 225.62109 125.79688 C 228.46233 122.95564 228.46233 118.3803 225.62109 115.53906 L 131.8125 21.730469 C 130.39188 20.309851 128.53758 19.599609 126.68359 19.599609 z M 183.35547 91.365234 C 183.56574 91.373247 183.7712 91.401098 183.9707 91.451172 C 186.31356 92.039153 187.69946 96.261968 186.79102 100.04883 C 186.38033 101.76073 185.95333 102.44419 184.89453 103.08984 C 183.28328 104.07233 182.61264 104.10445 181.08008 103.27148 C 180.45321 102.93095 179.67242 102.00454 179.34375 101.21484 C 178.5491 99.305464 178.63702 95.310266 179.51172 93.623047 C 180.22664 92.244025 181.88355 91.309147 183.35547 91.365234 z M 151.73828 91.373047 C 151.95883 91.368223 152.19426 91.397058 152.46484 91.451172 C 154.25441 91.809093 155.15035 92.696374 155.75391 94.710938 C 156.79675 98.191618 155.98497 101.82502 153.87891 103.10938 C 152.05714 104.22033 151.27101 104.13702 149.60938 102.65234 C 148.20781 101.40004 148.18359 101.31596 148.18359 97.597656 C 148.18359 93.853883 148.19965 93.803861 149.6582 92.5 C 150.55491 91.698759 151.07662 91.38752 151.73828 91.373047 z M 173.51172 91.5 C 173.65709 91.502941 173.75965 91.517867 173.80664 91.546875 C 173.99448 91.662906 174.14844 94.102923 174.14844 96.96875 C 174.14844 99.834577 174.2947 102.15733 174.47461 102.12891 C 175.53212 101.96185 176.33008 102.26422 176.33008 102.83398 C 176.33008 103.36127 175.65001 103.48828 172.83789 103.48828 C 170.16682 103.48828 169.34766 103.3477 169.34766 102.88867 C 169.34766 102.55872 169.94476 102.16925 170.67383 102.02344 L 171.99805 101.75781 L 171.87305 97.714844 L 171.74805 93.669922 L 170.54883 93.533203 C 168.61431 93.310589 169.12546 92.261816 171.40625 91.775391 C 172.25528 91.594257 173.07561 91.491177 173.51172 91.5 z M 163.23828 91.523438 C 163.35847 91.50454 163.55578 93.844609 163.67578 96.724609 C 163.88517 101.74643 163.93352 101.96585 164.875 102.09961 C 165.41502 102.17633 165.85742 102.51999 165.85742 102.86328 C 165.85742 103.34914 165.13142 103.48828 162.58398 103.48828 C 160.0791 103.48828 159.31055 103.34559 159.31055 102.88086 C 159.31055 102.54675 159.80234 102.15058 160.40234 102 C 161.47002 101.73203 161.49414 101.6387 161.49414 97.589844 C 161.49414 93.467778 161.48949 93.451172 160.40234 93.451172 C 158.48813 93.451172 159.0931 92.188886 161.16602 91.857422 C 162.18603 91.694524 163.11828 91.543469 163.23828 91.523438 z M 142.29297 91.560547 C 142.83178 91.501964 142.98641 92.414096 143.16602 96.724609 C 143.3754 101.74643 143.42375 101.96784 144.36523 102.10156 C 144.90525 102.17829 145.34766 102.52194 145.34766 102.86523 C 145.34766 103.35457 144.5941 103.48828 141.85742 103.48828 C 139.18635 103.48828 138.36523 103.3477 138.36523 102.88867 C 138.36523 102.55872 138.95578 102.17134 139.67578 102.02734 L 140.98438 101.76562 L 140.98438 97.609375 L 140.98438 93.453125 L 139.67578 93.453125 C 138.82119 93.453125 138.36523 93.232785 138.36523 92.818359 C 138.36523 92.254 139.62073 91.851835 142.29297 91.560547 z M 193.7832 91.560547 C 194.32579 91.501208 194.4606 92.365142 194.5625 96.611328 C 194.68344 101.64985 194.70232 101.73798 195.76172 102.00391 C 196.35412 102.15244 196.83789 102.54686 196.83789 102.88086 C 196.83789 103.34899 196.03891 103.48828 193.34766 103.48828 C 190.67659 103.48828 189.85742 103.3477 189.85742 102.88867 C 189.85742 102.55872 190.44602 102.17134 191.16602 102.02734 L 192.47461 101.76562 L 192.47461 97.609375 L 192.47461 93.453125 L 191.16602 93.453125 C 190.31143 93.453125 189.85742 93.232785 189.85742 92.818359 C 189.85742 92.254 191.11096 91.851835 193.7832 91.560547 z M 152.08398 93.453125 C 150.70049 93.453125 150.14844 94.635716 150.14844 97.597656 C 150.14844 100.55956 150.70049 101.74414 152.08398 101.74414 C 152.85017 101.74414 153.24035 101.38848 153.5957 100.36914 C 154.66376 97.305418 153.82189 93.453125 152.08398 93.453125 z M 182.79883 93.482422 C 182.31086 93.519806 181.85023 93.795804 181.58203 94.296875 C 181.33372 94.761077 181.12891 96.246097 181.12891 97.597656 C 181.12891 98.949215 181.33368 100.4342 181.58203 100.89844 C 182.2207 102.09175 184.04132 102.00518 184.43945 100.76172 C 184.93805 99.204818 184.76388 94.806318 184.17578 94.097656 C 183.80081 93.645852 183.28679 93.445038 182.79883 93.482422 z M 64.378906 94.408203 C 65.363483 94.404663 66.337163 94.491304 67.287109 94.667969 C 70.23669 95.216492 73.667476 96.754303 75.726562 98.453125 C 76.990739 99.496161 77.000291 99.533407 76.205078 100.41211 C 75.169752 101.55617 74.838471 101.53734 73.308594 100.25 C 68.768663 96.429918 60.299759 96.384445 55.357422 100.1543 C 53.581044 101.50926 53.017472 101.58399 52.455078 100.5332 L 52.455078 100.53125 C 51.822347 99.349014 52.545101 98.491824 55.625 96.769531 C 58.37934 95.229213 61.425175 94.418822 64.378906 94.408203 z M 64.335938 99.421875 C 67.25567 99.43825 70.181644 100.43688 72.658203 102.38086 C 73.469743 103.01786 73.470469 103.06565 72.699219 103.91797 C 71.690992 105.03206 71.536497 105.02363 69.630859 103.73047 C 66.572163 101.65483 61.252112 101.85636 58.226562 104.16406 L 56.798828 105.25391 L 56.089844 104.17188 C 55.225315 102.85244 55.39102 102.55488 57.748047 101.18359 C 59.797978 99.990959 62.065035 99.409139 64.335938 99.421875 z M 64.478516 104.46094 C 66.219323 104.49742 67.95791 104.97956 69.171875 105.89844 C 69.999327 106.52474 69.996896 106.55493 69.041016 107.57227 L 68.068359 108.60938 L 66.453125 107.78516 C 64.736275 106.90861 62.996981 107.01154 61.291016 108.08984 C 60.46791 108.61006 60.254024 108.56052 59.408203 107.66016 L 58.453125 106.64453 L 59.775391 105.70312 C 60.99425 104.83521 62.737708 104.42445 64.478516 104.46094 z M 64.503906 109.61914 C 65.060782 109.62848 65.552975 109.77837 65.728516 110.0625 C 66.007445 110.51389 64.786126 112.2168 64.183594 112.2168 C 64.01805 112.2168 63.516007 111.81107 63.068359 111.31641 C 62.371792 110.54671 62.347419 110.35863 62.892578 110.01367 C 63.325542 109.73981 63.947031 109.6098 64.503906 109.61914 z M 143.16602 113.86328 L 143.16602 119.14844 L 143.16602 124.43359 L 144.25781 124.43359 C 145.05779 124.43359 145.34766 124.66673 145.34766 125.30664 C 145.34766 126.10117 145.05749 126.17969 142.10156 126.17969 C 140.31574 126.17969 138.73229 125.98433 138.58398 125.74414 C 138.15025 125.04232 138.77064 124.43359 139.91992 124.43359 C 140.97445 124.43359 140.98438 124.39333 140.98438 120.28906 L 140.98438 116.14258 L 139.67578 116.14258 C 138.8269 116.14258 138.36523 115.92137 138.36523 115.51367 C 138.36523 114.67847 138.6541 114.53702 141.09375 114.17188 L 143.16602 113.86328 z M 194.65625 113.86328 L 194.65625 119.14844 L 194.65625 124.43359 L 195.74805 124.43359 C 196.54806 124.43359 196.83789 124.66673 196.83789 125.30664 C 196.83789 126.10117 196.54777 126.17969 193.5918 126.17969 C 191.80597 126.17969 190.22257 125.98433 190.07422 125.74414 C 189.64052 125.04232 190.26088 124.43359 191.41016 124.43359 C 192.46472 124.43359 192.47461 124.39333 192.47461 120.28906 L 192.47461 116.14258 L 191.16602 116.14258 C 190.31713 116.14258 189.85742 115.92137 189.85742 115.51367 C 189.85742 114.67847 190.14434 114.53702 192.58398 114.17188 L 194.65625 113.86328 z M 153.20312 113.88477 L 153.20312 118.46875 C 153.20312 123.66462 153.38081 124.43359 154.58984 124.43359 C 155.17163 124.43359 155.40153 124.67966 155.30273 125.19727 C 155.18292 125.82595 154.59889 125.98428 151.99805 126.08984 C 149.06555 126.2089 148.83789 126.15408 148.83789 125.32617 C 148.83789 124.66578 149.12185 124.43359 149.92969 124.43359 C 151.01676 124.43359 151.02148 124.41941 151.02148 120.28906 C 151.02148 116.15815 151.01679 116.14258 149.92969 116.14258 C 149.27073 116.14258 148.83789 115.8934 148.83789 115.51367 C 148.83789 114.70361 149.10844 114.56195 151.34766 114.19141 L 153.20312 113.88477 z M 162.43555 113.95312 C 162.97779 113.95436 163.54785 114.09605 164.13477 114.41016 C 166.89216 115.88587 167.25785 123.26819 164.67383 125.30078 C 162.98272 126.63102 160.92793 126.45227 159.58594 124.85742 C 156.24776 120.89021 158.63982 113.94446 162.43555 113.95312 z M 182.9375 113.95703 C 184.65676 113.97611 186.20573 115.40886 186.79688 117.87305 C 187.82491 122.15831 186.04242 126.17969 183.11328 126.17969 C 182.32699 126.17969 181.1902 125.79212 180.58789 125.31836 C 178.12715 123.38271 178.11208 116.77199 180.5625 114.84375 C 181.3401 114.23209 182.15602 113.94836 182.9375 113.95703 z M 121.16406 113.99219 C 121.87692 113.99879 122.69676 114.02646 123.66797 114.07227 C 126.35223 114.19888 129.06939 114.50801 129.70703 114.75977 L 130.86719 115.21875 L 129.97266 117.64453 C 129.48109 118.97893 128.83695 120.07031 128.54102 120.07031 C 128.24508 120.07031 127.1688 119.77613 126.14844 119.41602 C 123.79001 118.58388 120.15045 118.57611 118.17969 119.40039 C 114.3833 120.98662 112.85731 125.01219 113.14062 132.6875 C 113.29937 136.98599 113.49154 138.07136 114.42188 139.92578 C 116.0112 143.09421 117.68485 144.07058 121.52148 144.07031 C 123.5853 144.07016 125.40329 143.77334 126.96484 143.17969 C 128.25457 142.68952 129.35808 142.34572 129.41602 142.41602 C 129.83362 142.92266 130.96225 147.18651 130.76367 147.50781 C 130.12641 148.53891 122.65471 149.37565 118.73047 148.85547 C 113.52065 148.16491 109.71313 145.19736 107.79102 140.32617 C 106.90645 138.08442 106.7707 136.96477 106.75195 131.85156 C 106.73684 127.25169 106.90481 125.44126 107.5293 123.58789 C 109.12218 118.85913 111.90434 116.05639 116.4668 114.58789 C 117.85158 114.1422 119.0255 113.97238 121.16406 113.99219 z M 88.517578 114.02148 C 92.050136 114.03759 96.897186 114.64523 97.46875 115.2168 C 97.656593 115.40464 97.391335 116.65505 96.878906 117.99414 L 95.947266 120.42773 L 93.525391 119.5957 C 89.178329 118.10007 83.690636 118.73982 82.546875 120.87695 C 82.027303 121.8478 81.930621 123.55085 82.335938 124.60742 C 82.708221 125.57755 84.896652 126.82937 88.183594 127.95117 C 94.678632 130.16779 97.751558 132.57039 98.859375 136.30078 C 99.662298 139.0045 99.678808 139.59808 99.023438 142.20117 C 97.724338 147.36034 91.227063 149.90982 82.074219 148.85352 C 80.514219 148.67361 78.427295 148.30819 77.435547 148.04102 L 75.632812 147.55469 L 76.53125 145.04883 C 77.025952 143.67047 77.462356 142.49422 77.5 142.43359 C 77.537795 142.37312 78.729036 142.72683 80.148438 143.2207 C 83.266623 144.30592 88.836935 144.43292 90.716797 143.46094 C 93.100998 142.22806 93.654672 139.14255 91.904297 136.84766 C 91.071591 135.7559 89.732845 135.00358 86.037109 133.55273 C 80.241922 131.27772 77.70774 129.53081 76.458984 126.95117 C 73.288377 120.40159 78.123862 114.54181 87.101562 114.05273 C 87.536255 114.02907 88.012927 114.01918 88.517578 114.02148 z M 172.92383 114.06055 C 174.1206 114.10134 174.14844 115.1993 174.14844 119.40234 L 174.14844 124.43359 L 175.23828 124.43359 C 176.03829 124.43359 176.33008 124.66673 176.33008 125.30664 C 176.33008 126.0966 176.05092 126.17571 173.38477 126.14453 C 171.76475 126.12563 170.1926 126.01195 169.89258 125.89062 C 168.92782 125.50133 169.29451 124.43359 170.39258 124.43359 C 171.76277 124.43359 171.99663 123.68774 171.92188 119.57422 L 171.85938 116.14258 L 170.57227 116.14258 C 168.57887 116.14258 169.1251 114.7477 171.29492 114.29688 C 171.99618 114.15117 172.5249 114.04695 172.92383 114.06055 z M 61.128906 114.39844 L 64.402344 114.39844 L 67.675781 114.39844 L 67.675781 131.19727 L 67.675781 147.99805 L 64.402344 147.99805 L 61.128906 147.99805 L 61.128906 131.19727 L 61.128906 114.39844 z M 162.29297 115.69336 C 161.74876 115.78854 161.18149 116.3453 160.76758 117.33594 C 160.02161 119.12135 160.20566 122.75354 161.0957 123.82617 C 161.81858 124.6972 163.13246 124.57596 163.66016 123.58984 C 164.23124 122.52281 164.2465 118.30238 163.68555 116.82617 C 163.3582 115.9652 162.83718 115.59818 162.29297 115.69336 z M 182.99805 115.71094 C 182.64391 115.73833 182.24601 115.96103 181.81445 116.39258 C 181.013 117.19403 180.851 122.224 181.58203 123.58984 C 182.12092 124.59675 183.42768 124.69243 184.18555 123.7793 C 184.49396 123.40777 184.73047 121.92632 184.73047 120.36133 C 184.73047 117.30394 184.06045 115.62875 182.99805 115.71094 z M 172.71875 136.36133 C 174.80001 136.3419 176.43542 138.48048 176.68164 141.88477 C 176.89896 144.88904 176.29182 146.74671 174.68359 148.01172 C 173.16619 149.20529 171.78207 149.08518 170.13477 147.61328 C 168.84806 146.46362 168.71464 146.09599 168.57812 143.35742 C 168.40351 139.85118 169.28091 137.65067 171.21875 136.73047 C 171.73495 136.48535 172.23846 136.36581 172.71875 136.36133 z M 141.88281 136.40625 C 142.81375 136.46721 143.72371 136.94228 144.54297 137.81445 C 145.45066 138.78065 145.56641 139.32228 145.56641 142.61328 C 145.56641 146.25145 145.53924 146.3489 144.14062 147.59766 C 142.53315 149.03391 141.21479 149.2006 139.72656 148.1582 C 136.54877 145.9324 136.86345 138.33163 140.19922 136.74805 C 140.75793 136.48282 141.32425 136.36967 141.88281 136.40625 z M 151.98438 136.62305 C 153.26568 136.56946 153.20312 137.50363 153.20312 141.63477 L 153.20312 146.61914 L 154.51172 146.90625 C 155.23172 147.06423 155.82031 147.4735 155.82031 147.81445 C 155.82031 148.29838 155.05542 148.43359 152.33008 148.43359 C 149.63879 148.43359 148.83789 148.2943 148.83789 147.82617 C 148.83789 147.49206 149.32969 147.09589 149.92969 146.94531 C 150.99756 146.67734 151.02148 146.58527 151.02148 142.52734 L 151.02148 138.38086 L 149.92969 138.6543 C 149.04067 138.87729 148.83789 138.76795 148.83789 138.0625 C 148.83789 137.44224 149.22589 137.12122 150.20312 136.92578 C 150.98101 136.77021 151.55727 136.64091 151.98438 136.62305 z M 182.96484 136.62305 C 184.24615 136.56947 184.18359 137.50363 184.18359 141.63477 L 184.18359 146.61914 L 185.49414 146.90625 C 186.21414 147.06423 186.80273 147.47354 186.80273 147.81445 C 186.80273 148.29838 186.03589 148.43359 183.31055 148.43359 C 180.51838 148.43359 179.82031 148.30407 179.82031 147.78711 C 179.82031 147.43183 180.31211 147.01776 180.91211 146.86719 C 181.97907 146.5996 182.00195 146.50456 182.00195 142.48828 L 182.00195 138.38086 L 180.91211 138.6543 C 180.02313 138.87729 179.82031 138.76795 179.82031 138.0625 C 179.82031 137.44224 180.20632 137.12126 181.18359 136.92578 C 181.96147 136.77021 182.53774 136.6409 182.96484 136.62305 z M 163.67578 136.65039 L 163.67578 141.62109 C 163.67578 146.55942 163.68226 146.59326 164.76562 146.86523 C 165.36562 147.01604 165.85742 147.43168 165.85742 147.78711 C 165.85742 148.30041 165.18343 148.43164 162.58398 148.43164 C 159.9845 148.43164 159.31055 148.30029 159.31055 147.78711 C 159.31055 147.43183 159.80234 147.01776 160.40234 146.86719 C 161.47025 146.59922 161.49414 146.50715 161.49414 142.44922 L 161.49414 138.30273 L 160.40234 138.57617 C 159.52508 138.79652 159.31055 138.687 159.31055 138.01953 C 159.31055 137.14098 160.41065 136.66845 162.47461 136.6582 L 163.67578 136.65039 z M 193.62109 136.65234 C 194.65136 136.65234 194.65625 136.68236 194.65625 141.62305 C 194.65625 146.56138 194.66472 146.59517 195.74805 146.86719 C 196.34805 147.01761 196.83789 147.43168 196.83789 147.78711 C 196.83789 148.304 196.13982 148.43359 193.34766 148.43359 C 190.62231 148.43359 189.85742 148.29827 189.85742 147.81445 C 189.85742 147.47354 190.44602 147.06439 191.16602 146.90625 L 192.47461 146.61914 L 192.47461 142.51953 L 192.47461 138.41992 L 191.16602 138.68164 C 190.06058 138.90274 189.85742 138.80747 189.85742 138.07031 C 189.85742 137.1828 191.26577 136.65234 193.62109 136.65234 z M 141.66602 138.39844 C 140.89983 138.39844 140.50969 138.75218 140.1543 139.77148 C 139.56106 141.47327 139.53593 144.08531 140.09961 145.56836 C 140.62323 146.94558 142.4714 147.11254 143.15039 145.84375 C 143.39871 145.37951 143.60156 143.89453 143.60156 142.54297 C 143.60156 139.58101 143.04951 138.39844 141.66602 138.39844 z M 172.62109 138.39844 C 171.28526 138.39844 170.65625 139.72282 170.65625 142.54297 C 170.65625 145.3631 171.28526 146.68945 172.62109 146.68945 C 173.41321 146.68945 173.85499 146.36665 174.1582 145.57031 C 174.39191 144.95399 174.58398 143.5909 174.58398 142.54297 C 174.58398 139.72282 173.95697 138.39844 172.62109 138.39844 z "
       transform="matrix(0.26458333,0,0,0.26458333,74.52343,62.577293)" />
    <path
       style="opacity:0.998;fill:#ffffff;fill-opacity:1;stroke-width:0.115455"
       d="m 102.66354,122.88381 c -0.0388,-0.24267 -0.10294,-0.95705 -0.14251,-1.5875 -0.0717,-1.14262 -0.0708,-1.14794 0.28461,-1.66583 0.51887,-0.75605 0.47826,-1.25905 -0.12691,-1.572 -0.666,-0.3444 -1.3074,0.25098 -1.5798,1.46645 -0.14623,0.65251 0.0705,1.77734 0.51266,2.66069 0.57324,1.1452 1.18875,1.55373 1.05195,0.69819 z m 10.8609,0.18145 c 0.36016,-0.39261 0.82366,-1.38605 1.00064,-2.14467 0.45392,-1.94581 -0.90835,-3.84616 -1.82203,-2.54171 -0.26171,0.37364 -0.23356,0.56118 0.17735,1.18155 l 0.36219,0.5468 -0.0817,1.6089 c -0.0473,0.93188 -0.0381,1.6089 0.0218,1.6089 0.0569,0 0.21068,-0.1169 0.34174,-0.25977 z m -15.629306,-5.48405 c -0.13937,-1.61125 -0.0966,-2.20422 0.1867,-2.58738 0.39083,-0.52861 0.45907,-0.818 0.28853,-1.22358 -0.17519,-0.41665 -0.60619,-0.58338 -1.0786,-0.41725 -0.67095,0.23596 -1.11145,1.76888 -0.82976,2.88753 0.26214,1.04106 1.07959,2.46637 1.41453,2.46637 0.0764,0 0.0827,-0.38427 0.0186,-1.12569 z m 21.046006,-0.47119 c 0.42985,-1.03138 0.45956,-2.36755 0.069,-3.10404 -0.41168,-0.77633 -0.97255,-0.94443 -1.47492,-0.44206 -0.36155,0.36155 -0.36132,0.80294 6.9e-4,1.23312 0.39586,0.47044 0.45606,0.95127 0.30262,2.41678 -0.0732,0.69899 -0.0963,1.3304 -0.0514,1.40313 0.13286,0.21497 0.79876,-0.65459 1.15398,-1.50693 z m -25.769266,-4.74566 -0.0817,-1.60889 0.36974,-0.55588 c 0.41852,-0.62922 0.41694,-1.10044 -0.005,-1.45065 -0.97368,-0.80841 -2.03773,0.83666 -1.70766,2.64013 0.17972,0.98198 1.04055,2.58419 1.38842,2.58419 0.0782,0 0.0903,-0.53943 0.036,-1.6089 z m 29.906376,1.06049 c 0.89567,-1.22103 1.18395,-3.07036 0.63396,-4.06688 -0.15595,-0.28256 -0.42642,-0.59363 -0.60104,-0.69127 -0.28559,-0.15969 -0.34942,-0.1597 -0.635,-1.2e-4 -0.65179,0.36413 -0.7019,0.91916 -0.14556,1.61217 0.27754,0.34572 0.32386,0.98316 0.18664,2.56887 -0.11372,1.31426 -0.0373,1.3929 0.561,0.57727 z m -34.573076,-5.50076 c -0.17573,-1.42441 -0.12184,-1.89028 0.2795,-2.41647 0.38424,-0.50376 0.38909,-1.03477 0.0129,-1.41097 -0.36053,-0.36054 -0.649,-0.35827 -1.08491,0.009 -1.0776,0.90675 -0.88248,3.38321 0.38463,4.88164 0.496,0.58654 0.58331,0.35905 0.4079,-1.06273 z m 39.685356,0.0521 c 0.67849,-1.41033 0.65951,-2.86275 -0.0484,-3.70406 -0.38593,-0.45866 -0.95571,-0.47586 -1.29916,-0.0392 -0.32207,0.40945 -0.30117,0.75909 0.0719,1.20245 0.38825,0.46141 0.4758,1.34235 0.27054,2.72204 -0.078,0.52434 -0.10544,1.01222 -0.061,1.08419 0.13999,0.2265 0.62575,-0.35005 1.0661,-1.26539 z m -44.369806,-4.95041 c -0.0825,-1.62564 -0.0389,-1.89624 0.37146,-2.30664 0.42414,-0.42413 0.2321,-1.257367 -0.33582,-1.457097 -0.52594,-0.18496 -0.90048,0.0302 -1.26412,0.72632 -0.48094,0.920627 -0.43198,1.905807 0.16139,3.247607 0.3235,0.73154 0.78722,1.38545 0.98249,1.38545 0.13975,0 0.15296,-0.2491 0.0846,-1.59564 z m 48.543866,1.16937 c 0.44939,-0.54518 0.94007,-1.7686 1.02022,-2.54369 0.0799,-0.77242 -0.1451,-1.57739 -0.57893,-2.071507 -0.39166,-0.44607 -0.7288,-0.48823 -1.16437,-0.14561 -0.40508,0.31863 -0.40036,0.821897 0.0133,1.418487 0.35666,0.51439 0.3995,1.0748 0.21527,2.81609 -0.11561,1.09272 -0.0393,1.17388 0.49451,0.52623 z"
       id="path24"
       sodipodi:nodetypes="ssssssssssscsssssssssssssssscssccscssccssscssssssscsssssssscssssssssssssssss" />
  </g>
</svg>
